<?xml version="1.0" encoding="UTF-8"?>
<svg version="1.1" xmlns="http://www.w3.org/2000/svg" width="364" height="264">
<path d="M0 0 C0.43828125 0.56332031 0.8765625 1.12664062 1.328125 1.70703125 C4.10884913 3.85754454 6.80632666 3.02871933 10.1875 2.6875 C11.45980469 2.56761719 12.73210937 2.44773437 14.04296875 2.32421875 C15.01878906 2.21722656 15.99460938 2.11023438 17 2 C17 5.3 17 8.6 17 12 C16.34 12 15.68 12 15 12 C15.433125 13.299375 15.433125 13.299375 15.875 14.625 C20.07712191 29.66737842 19.26143208 41.13688334 11.87890625 54.8046875 C9.57440012 58.72378524 7.24994018 61.82563982 4 65 C3.34 65 2.68 65 2 65 C2.2165625 65.85271484 2.2165625 65.85271484 2.4375 66.72265625 C4.65072348 75.92905116 4.27632974 82.46164263 0 91 C-0.96611118 92.35808946 -1.95702036 93.70001106 -3 95 C-1.68 95.33 -0.36 95.66 1 96 C1 98.125 1 98.125 0 101 C-7.85428642 108.83469967 -17.80574808 111.19636698 -28.5625 111.1875 C-29.77305054 111.1884668 -29.77305054 111.1884668 -31.00805664 111.18945312 C-36.3340855 111.14250426 -41.2725132 110.59358385 -46.48046875 109.43359375 C-49.299633 108.94843525 -51.89348987 108.97359644 -54.75 109.0625 C-58.64614705 109.12825776 -61.38559113 108.79694981 -64.92578125 106.98828125 C-67.87013942 105.5854138 -70.92148366 104.57375017 -74 103.5 C-81.21965037 100.96665588 -81.21965037 100.96665588 -84.6875 99.3125 C-92.10587027 96.37314574 -99.73594298 95.91144402 -107.625 95.5625 C-115.45481517 95.18724461 -122.04340397 94.31637141 -128.5625 89.75 C-131 87 -131 87 -131.625 83.5 C-130.90674419 79.47776744 -129.90891909 77.82811579 -127 75 C-121.88873234 71.99026595 -117.02879637 72.37642428 -111.34375 73.546875 C-98.49741258 77.28784139 -86.99612859 85.4835344 -76.00390625 92.91796875 C-75.34261719 93.27503906 -74.68132812 93.63210937 -74 94 C-73.34 93.67 -72.68 93.34 -72 93 C-72.495 92.46375 -72.99 91.9275 -73.5 91.375 C-75.41127245 88.34881863 -75.37478243 86.52295483 -75 83 C-73 80 -73 80 -69.5 79.25 C-66 79 -66 79 -64 80 C-63.95875 78.989375 -63.9175 77.97875 -63.875 76.9375 C-63.23872683 72.14097918 -60.30464254 69.32485442 -57 66 C-57.50789063 65.64808594 -58.01578125 65.29617187 -58.5390625 64.93359375 C-66.6825287 59.09286799 -71.5007534 53.82912656 -74 44 C-74.226875 43.154375 -74.45375 42.30875 -74.6875 41.4375 C-75.45752348 35.43131684 -74.85018888 29.95132216 -74 24 C-73.53139319 18.5364706 -74.25221094 14.80863085 -77 10 C-77 9.34 -77 8.68 -77 8 C-76.38253906 8.020625 -75.76507813 8.04125 -75.12890625 8.0625 C-67.0220227 7.86507209 -63.56276537 4.54181333 -58 -1 C-42.68225096 -14.58888346 -15.54026333 -11.32345563 0 0 Z M-60 4 C-60.845625 4.66 -61.69125 5.32 -62.5625 6 C-64.34855414 8.03184892 -64.34855414 8.03184892 -63.75 11.25 C-63.5025 12.1575 -63.255 13.065 -63 14 C-58.48382401 14.07654536 -54.40914783 14.10228696 -50 13 C-50 13.99 -50 14.98 -50 16 C-51.98 16.99 -51.98 16.99 -54 18 C-54 18.66 -54 19.32 -54 20 C-56.375 22.625 -56.375 22.625 -59 25 C-59.66 25 -60.32 25 -61 25 C-60.195625 24.21625 -59.39125 23.4325 -58.5625 22.625 C-56.01309583 20.28017144 -56.01309583 20.28017144 -55 18 C-55.680625 18.28875 -56.36125 18.5775 -57.0625 18.875 C-60.32893093 20.12597355 -63.62846123 21.07447955 -67 22 C-67.33 21.01 -67.66 20.02 -68 19 C-72.94001878 25.22871933 -72.45628323 31.31078268 -72 39 C-70.7470636 47.81302722 -68.15240574 54.82900488 -61.11328125 60.52734375 C-56.61281336 63.57775912 -52.30990781 64.95698239 -47 66 C-49.97 66.495 -49.97 66.495 -53 67 C-53.0161925 73.97975666 -53.0161925 73.97975666 -49.4375 79.625 C-48.633125 80.07875 -47.82875 80.5325 -47 81 C-47.33 79.68 -47.66 78.36 -48 77 C-47.34 77 -46.68 77 -46 77 C-45.505 77.99 -45.505 77.99 -45 79 C-44.505 77.515 -44.505 77.515 -44 76 C-43.01 76.99 -42.02 77.98 -41 79 C-41.33 76.03 -41.66 73.06 -42 70 C-39.27713194 74.08430208 -39.61475466 76.14590877 -40 81 C-43 83 -43 83 -45.375 82.875 C-50.04145126 81.31951625 -52.42972878 79.02255529 -54.8125 74.75 C-55.204375 73.8425 -55.59625 72.935 -56 72 C-56.99 72 -57.98 72 -59 72 C-59.66 73.11375 -60.32 74.2275 -61 75.375 C-61.37125 76.00148438 -61.7425 76.62796875 -62.125 77.2734375 C-63.15068348 78.97472667 -63.15068348 78.97472667 -63 81 C-61.70766393 82.37310707 -60.37562854 83.71034824 -59 85 C-60.0725 84.525625 -61.145 84.05125 -62.25 83.5625 C-64.80839865 82.46233668 -67.25835017 81.54832997 -70 81 C-69.79375 81.556875 -69.5875 82.11375 -69.375 82.6875 C-69 85 -69 85 -70.1875 87.375 C-71.33664705 90.08686484 -71.33664705 90.08686484 -69.75 92.9375 C-65.5206501 98.52370619 -58.37364463 101.55019522 -52 104 C-50.865625 104.495 -49.73125 104.99 -48.5625 105.5 C-42.19555836 108.18081753 -37.10908104 109.36067679 -30.25 109.3125 C-29.45376221 109.30903564 -28.65752441 109.30557129 -27.8371582 109.30200195 C-20.10738237 109.15942686 -12.20465049 108.0037504 -6 103 C-5.02266343 101.01224124 -5.02266343 101.01224124 -5 99 C-5.33 98.34 -5.66 97.68 -6 97 C-5.34 96.67 -4.68 96.34 -4 96 C-8.54805635 95.82164485 -11.8794254 96.00214565 -16 98 C-15.67 97.34 -15.34 96.68 -15 96 C-13.109375 95.54296875 -13.109375 95.54296875 -10.75 95.1875 C-6.15149033 94.24440342 -3.88302727 92.84403636 -1 89 C1.01317218 84.59019427 1.19249284 80.81232093 1 76 C0.29423828 76.52400391 0.29423828 76.52400391 -0.42578125 77.05859375 C-1.04839844 77.51363281 -1.67101562 77.96867187 -2.3125 78.4375 C-2.92738281 78.88996094 -3.54226562 79.34242188 -4.17578125 79.80859375 C-8.36283081 82.54317644 -12.18726748 82.15278516 -17 82 C-17.99 81.505 -17.99 81.505 -19 81 C-18.8125 77.6875 -18.8125 77.6875 -18 74 C-15.58235424 72.07828158 -14.11532786 71 -11 71 C-12.98 71.99 -12.98 71.99 -15 73 C-14.50168276 76.68754757 -13.89932357 78.60490662 -11 81 C-5.3533694 79.68683009 -3.07395069 77.75065107 0 73 C-0.0406843 70.19514873 -0.0406843 70.19514873 -1 68 C-2.32 68.33 -3.64 68.66 -5 69 C-4.29875 68.443125 -3.5975 67.88625 -2.875 67.3125 C-1.92625 66.549375 -0.9775 65.78625 0 65 C0.969375 64.29875 1.93875 63.5975 2.9375 62.875 C7.11082783 59.37755817 9.45418373 54.73407407 12 50 C12.41765625 49.31164062 12.8353125 48.62328125 13.265625 47.9140625 C17.43827067 40.24462221 16.98038862 30.82105741 15.5625 22.40234375 C14.1242858 17.73713645 11.41069095 15.30174155 7.6953125 12.43359375 C5.22982502 10.348723 3.76927521 7.68244952 2 5 C-7.04854156 -3.8331001 -19.20301184 -7.55792339 -31.68359375 -8.12109375 C-42.57364303 -7.55179944 -51.73902288 -2.84693599 -60 4 Z M10 4 C9.67 4.66 9.34 5.32 9 6 C9.99 6 10.98 6 12 6 C12.33 7.65 12.66 9.3 13 11 C14.4606285 8.35261084 15 7.10551666 15 4 C13.35 4 11.7 4 10 4 Z M-74 9 C-73.34 10.98 -72.68 12.96 -72 15 C-71.67 14.34 -71.34 13.68 -71 13 C-71.33 12.01 -71.66 11.02 -72 10 C-71.34 9.67 -70.68 9.34 -70 9 C-71.32 9 -72.64 9 -74 9 Z M12 11 C13 14 13 14 13 14 Z M-65 14 C-64 17 -64 17 -64 17 Z M-71 15 C-70 17 -70 17 -70 17 Z M-61 16 C-61.33 16.66 -61.66 17.32 -62 18 C-60.02 17.67 -58.04 17.34 -56 17 C-56 16.67 -56 16.34 -56 16 C-57.65 16 -59.3 16 -61 16 Z M-70 17 C-69 19 -69 19 -69 19 Z M-127 78 C-129.27157197 80.80643274 -129.27157197 80.80643274 -129 83.9375 C-128.22510204 87.17368577 -128.22510204 87.17368577 -125.5 89.25 C-116.71114688 93.64442656 -106.88149146 93.56165731 -97.23828125 94.03515625 C-91.07615988 94.43295458 -86.23679466 95.31828184 -80.72460938 98.16455078 C-79.01939786 99.14532238 -79.01939786 99.14532238 -77 99 C-77.85233055 94.99551593 -79.60851411 93.31907786 -82.859375 91.09765625 C-84.47874788 90.06868322 -86.10971025 89.0577907 -87.75 88.0625 C-88.60384277 87.53615967 -89.45768555 87.00981934 -90.33740234 86.4675293 C-108.01889627 75.16155477 -108.01889627 75.16155477 -127 78 Z M-16 78 C-16.33 78.66 -16.66 79.32 -17 80 C-16.01 79.67 -15.02 79.34 -14 79 C-14.66 78.67 -15.32 78.34 -16 78 Z M-71 95 C-70.67 95.99 -70.34 96.98 -70 98 C-69.34 97.67 -68.68 97.34 -68 97 C-68.99 96.34 -69.98 95.68 -71 95 Z M-76 98 C-75 100 -75 100 -75 100 Z M-69 101 C-66.60490662 103.89932357 -64.68754757 104.50168276 -61 105 C-61 104.34 -61 103.68 -61 103 C-63.64 102.34 -66.28 101.68 -69 101 Z M-60 104 C-60 104.66 -60 105.32 -60 106 C-57.36 106.33 -54.72 106.66 -52 107 C-54.5654594 104.4345406 -56.47686668 104.45953913 -60 104 Z " fill="#E7F7FE" transform="translate(224,75)"/>
<path d="M0 0 C0.99 0.33 1.98 0.66 3 1 C0.53721199 3.46278801 -1.70676982 3.99771255 -5 5 C-2.36 5 0.28 5 3 5 C2.34 5.66 1.68 6.32 1 7 C1.66 7 2.32 7 3 7 C3.66 7.33 4.32 7.66 5 8 C5 8.66 5 9.32 5 10 C2.37518273 10.33482863 -0.24983387 10.6679277 -2.875 11 C-3.99455078 11.14308594 -3.99455078 11.14308594 -5.13671875 11.2890625 C-10.7734375 12 -10.7734375 12 -13 12 C-13.68675383 15.43376914 -14.02044147 18.57851572 -13.875 22.0625 C-14.01336455 26.42098338 -14.91313613 28.91313613 -18 32 C-20.3125 32.375 -20.3125 32.375 -23 32 C-26.21191503 28.78808497 -28.1637707 25.13151593 -30 21 C-30 20.34 -30 19.68 -30 19 C-30.61875 18.87625 -31.2375 18.7525 -31.875 18.625 C-34 18 -34 18 -36 16 C-35.625 13.875 -35.625 13.875 -35 12 C-34.814375 12.639375 -34.62875 13.27875 -34.4375 13.9375 C-33.05753944 16.42126213 -33.05753944 16.42126213 -29.375 16.75 C-28.26125 16.8325 -27.1475 16.915 -26 17 C-26 15.68 -26 14.36 -26 13 C-27.32 12.34 -28.64 11.68 -30 11 C-28.3125 8.9375 -28.3125 8.9375 -26 7 C-23.25 7.25 -23.25 7.25 -21 8 C-20.67 8.99 -20.34 9.98 -20 11 C-20.66 11.66 -21.32 12.32 -22 13 C-21.67 13.66 -21.34 14.32 -21 15 C-19.68 14.34 -18.36 13.68 -17 13 C-17.04125 12.05125 -17.0825 11.1025 -17.125 10.125 C-17 7 -17 7 -15 5 C-12.85361214 4.25158844 -10.68263288 3.57249165 -8.5 2.9375 C-4.15073554 1.72220825 -4.15073554 1.72220825 0 0 Z M-15 9 C-14.34 9.66 -13.68 10.32 -13 11 C-13 10.34 -13 9.68 -13 9 C-13.66 9 -14.32 9 -15 9 Z " fill="#F6FCFD" transform="translate(209,79)"/>
<path d="M0 0 C0.99 0.33 1.98 0.66 3 1 C0.53721199 3.46278801 -1.70676982 3.99771255 -5 5 C-2.36 5 0.28 5 3 5 C2.34 5.66 1.68 6.32 1 7 C1.66 7 2.32 7 3 7 C3.66 7.33 4.32 7.66 5 8 C5 8.66 5 9.32 5 10 C3.90300781 10.13277344 2.80601562 10.26554687 1.67578125 10.40234375 C0.22134199 10.58062985 -1.23308442 10.7590208 -2.6875 10.9375 C-3.40873047 11.02451172 -4.12996094 11.11152344 -4.87304688 11.20117188 C-8.62010584 11.66313805 -12.30792911 12.19167679 -16 13 C-16.625 10.125 -16.625 10.125 -17 7 C-14.38543737 4.38543737 -12.03853192 3.96696227 -8.5 2.9375 C-4.15073554 1.72220825 -4.15073554 1.72220825 0 0 Z M-15 9 C-14.34 9.66 -13.68 10.32 -13 11 C-13 10.34 -13 9.68 -13 9 C-13.66 9 -14.32 9 -15 9 Z " fill="#DAF0FE" transform="translate(209,79)"/>
<path d="M0 0 C0.66 0.66 1.32 1.32 2 2 C0.1066944 4.62959112 -1.89417115 7.17342956 -3.9375 9.6875 C-4.42089844 10.28949219 -4.90429688 10.89148438 -5.40234375 11.51171875 C-7.23856387 13.22223187 -8.55207157 13.60346732 -11 14 C-9.47793991 11.37098712 -8.15634036 9.15634036 -6 7 C-6.9075 7.495 -7.815 7.99 -8.75 8.5 C-12 10 -12 10 -16 10 C-16 9.34 -16 8.68 -16 8 C-13.03 7.01 -10.06 6.02 -7 5 C-7.33 4.01 -7.66 3.02 -8 2 C-6.71254964 1.61077082 -5.41980403 1.23901964 -4.125 0.875 C-3.40570313 0.66617188 -2.68640625 0.45734375 -1.9453125 0.2421875 C-1.30335938 0.16226563 -0.66140625 0.08234375 0 0 Z " fill="#DCF2FE" transform="translate(173,87)"/>
<path d="M0 0 C0 2.97 0 5.94 0 9 C-3.53508103 8.70540991 -4.76203444 8.25118587 -7.25 5.625 C-9 3 -9 3 -10 0 C-6.30458414 -0.95024979 -3.69541586 -0.95024979 0 0 Z " fill="#F4FBFE" transform="translate(237,81)"/>
<path d="M0 0 C2.5 0.25 2.5 0.25 4.5 2.25 C4.5 3.24 4.5 4.23 4.5 5.25 C2.85 4.92 1.2 4.59 -0.5 4.25 C-0.83 5.24 -1.16 6.23 -1.5 7.25 C-2.82 7.25 -4.14 7.25 -5.5 7.25 C-4.42513369 0.44251337 -4.42513369 0.44251337 0 0 Z " fill="#E3FAFE" transform="translate(174.5,73.75)"/>
<path d="M0 0 C2 1 2 1 2.8515625 3.00390625 C4.52969169 8.55529321 5.32200738 13.20386714 5 19 C3.4547162 16.02030478 2.16369282 12.99876118 0.9375 9.875 C-0.42914968 6.39188363 -0.42914968 6.39188363 -2 3 C-1.34 3 -0.68 3 0 3 C0 2.01 0 1.02 0 0 Z " fill="#E2F6FF" transform="translate(237,87)"/>
<path d="M0 0 C7.05985273 -0.11766421 13.97252688 0.33411422 21 1 C20.67 1.99 20.34 2.98 20 4 C17.60388361 3.68955976 15.20812165 3.37671642 12.8125 3.0625 C11.80219727 2.93198242 11.80219727 2.93198242 10.77148438 2.79882812 C7.14918834 2.32174523 3.57196415 1.76987965 0 1 C0 0.67 0 0.34 0 0 Z " fill="#DFF2FF" transform="translate(115,168)"/>
<path d="M0 0 C2.46598569 2.46598569 3.65194009 4.79033355 5 8 C4.6875 10.375 4.6875 10.375 4 12 C3.34 12 2.68 12 2 12 C1.01 8.37 0.02 4.74 -1 1 C-0.67 0.67 -0.34 0.34 0 0 Z " fill="#D8ECFF" transform="translate(149,84)"/>
<path d="M0 0 C-6.5 4 -6.5 4 -11 4 C-11 3.34 -11 2.68 -11 2 C-9.54494642 1.47007308 -8.08581873 0.9513211 -6.625 0.4375 C-5.81289062 0.14746094 -5.00078125 -0.14257812 -4.1640625 -0.44140625 C-2 -1 -2 -1 0 0 Z " fill="#E1F7FF" transform="translate(168,93)"/>
<path d="M0 0 C-0.33 1.32 -0.66 2.64 -1 4 C-1.33 3.01 -1.66 2.02 -2 1 C-3.98 1.99 -5.96 2.98 -8 4 C-7.625 2.0625 -7.625 2.0625 -7 0 C-4.3333581 -1.33332095 -2.83319697 -0.67102033 0 0 Z " fill="#DEF2FF" transform="translate(198,75)"/>
<path d="M0 0 C1.65 0.33 3.3 0.66 5 1 C5 2.32 5 3.64 5 5 C4.01 4.67 3.02 4.34 2 4 C1.67 4.33 1.34 4.66 1 5 C0.01 4.67 -0.98 4.34 -2 4 C-2 3.34 -2 2.68 -2 2 C-1.34 2 -0.68 2 0 2 C0 1.34 0 0.68 0 0 Z " fill="#EEF8FE" transform="translate(220,170)"/>
<path d="M0 0 C0.20625 0.639375 0.4125 1.27875 0.625 1.9375 C1.89538209 4.34925077 1.89538209 4.34925077 5.125 4.75 C6.07375 4.8325 7.0225 4.915 8 5 C8 5.33 8 5.66 8 6 C4.625 6.125 4.625 6.125 1 6 C0.34 5.34 -0.32 4.68 -1 4 C-0.625 1.875 -0.625 1.875 0 0 Z " fill="#E5F4FE" transform="translate(174,91)"/>
<path d="M0 0 C2.97 0 5.94 0 9 0 C8.67 0.99 8.34 1.98 8 3 C5.6568787 2.74438677 3.32156597 2.40729228 1 2 C0.67 1.34 0.34 0.68 0 0 Z " fill="#D5EDFD" transform="translate(127,169)"/>
<path d="M0 0 C0.66 0.33 1.32 0.66 2 1 C2.625 4.0625 2.625 4.0625 3 7 C2.01 7.495 2.01 7.495 1 8 C0.01 6.35 -0.98 4.7 -2 3 C-1.34 3 -0.68 3 0 3 C0 2.01 0 1.02 0 0 Z " fill="#D7EEFF" transform="translate(237,87)"/>
</svg>
