<?xml version="1.0" encoding="UTF-8"?>
<svg version="1.1" xmlns="http://www.w3.org/2000/svg" width="364" height="264">
<path d="M0 0 C2.91672884 -0.02700675 5.83320677 -0.04684237 8.75 -0.0625 C9.575 -0.07087891 10.4 -0.07925781 11.25 -0.08789062 C12.04921875 -0.09111328 12.8484375 -0.09433594 13.671875 -0.09765625 C14.4050293 -0.10289307 15.13818359 -0.10812988 15.89355469 -0.11352539 C24.3538435 0.34243593 32.83760303 4.2900967 39.24609375 9.6328125 C43.39639717 12.86801561 45.99237883 13.19648056 51.25 12.625 C52.32765625 12.51414062 53.4053125 12.40328125 54.515625 12.2890625 C55.33546875 12.19367188 56.1553125 12.09828125 57 12 C57 15.3 57 18.6 57 22 C56.34 22 55.68 22 55 22 C55.309375 23.0725 55.61875 24.145 55.9375 25.25 C59.2385527 36.90077423 59.92604035 49.27628111 54.5 60.375 C48.24961715 71.31316998 48.24961715 71.31316998 44 75 C43.34 75 42.68 75 42 75 C42.15597656 75.67804688 42.31195313 76.35609375 42.47265625 77.0546875 C44.0277248 84.49018081 45.32287007 91.67598702 41.58984375 98.625 C40.13626365 100.82427013 38.63351037 102.93188595 37 105 C38.32 105.33 39.64 105.66 41 106 C41.3046875 108.2734375 41.3046875 108.2734375 41 111 C31.08923429 120.23246235 19.19110472 121.553611 6.33984375 121.234375 C1.98767918 121.05057318 -2.16776186 120.43955873 -6.421875 119.5 C-10.21829362 118.76372487 -14.02437251 118.61082784 -17.8828125 118.44140625 C-24.43372951 117.51377013 -30.53558103 114.83466114 -36.63085938 112.34814453 C-45.57557525 108.71848937 -53.68787794 106.23508798 -63.38671875 105.77734375 C-64.17691406 105.7397998 -64.96710938 105.70225586 -65.78125 105.66357422 C-67.33924478 105.59813085 -68.89798822 105.5479784 -70.45703125 105.51611328 C-77.1403262 105.2902864 -83.00687935 103.66931639 -88.5 99.75 C-91 97 -91 97 -91.625 93.5 C-90.90674419 89.47776744 -89.90891909 87.82811579 -87 85 C-82.67324729 82.44694716 -78.91213543 82.38598307 -74 83 C-64.16441516 85.71037423 -55.40196112 90.58322923 -46.875 96.0625 C-42.34529483 98.96582531 -37.87088597 101.68594981 -33 104 C-33.495 102.948125 -33.495 102.948125 -34 101.875 C-35.13288904 98.617944 -35.43698184 96.42302438 -35 93 C-32.76793569 90.15219381 -31.45007001 89.15002334 -28 88 C-25.8125 88.9375 -25.8125 88.9375 -24 90 C-24.061875 89.26136719 -24.12375 88.52273437 -24.1875 87.76171875 C-23.9628762 84.45319737 -23.09965965 83.32528713 -21 80.8125 C-18.62301927 78.23546563 -18.62301927 78.23546563 -18 75 C-18.845625 74.46375 -19.69125 73.9275 -20.5625 73.375 C-27.93853544 68.63825686 -31.96888568 62.41693774 -34 54 C-34.226875 53.154375 -34.45375 52.30875 -34.6875 51.4375 C-35.45752348 45.43131684 -34.85018888 39.95132216 -34 34 C-33.53139319 28.5364706 -34.25221094 24.80863085 -37 20 C-37 19.34 -37 18.68 -37 18 C-36.39414063 18.03222656 -35.78828125 18.06445312 -35.1640625 18.09765625 C-26.58987389 17.97893672 -22.85855189 13.7874776 -17 8 C-11.63956212 3.75387634 -6.89367484 1.67936396 0 2 C0 1.34 0 0.68 0 0 Z M-20 14 C-20.825 14.680625 -21.65 15.36125 -22.5 16.0625 C-24.4322754 18.55835572 -24.15108728 19.90271068 -24 23 C-25 25.8125 -25 25.8125 -26 28 C-25.45601563 27.52820313 -24.91203125 27.05640625 -24.3515625 26.5703125 C-21.62605744 24.75029085 -19.60035991 24.35315309 -16.375 23.875 C-12.55816343 23.34397156 -12.55816343 23.34397156 -9 22 C-9.25 23.875 -9.25 23.875 -10 26 C-12.0625 27.25 -12.0625 27.25 -14 28 C-14 28.66 -14 29.32 -14 30 C-16.375 32.625 -16.375 32.625 -19 35 C-19.66 35 -20.32 35 -21 35 C-20.195625 34.21625 -19.39125 33.4325 -18.5625 32.625 C-16.01309583 30.28017144 -16.01309583 30.28017144 -15 28 C-16.0209375 28.4640625 -16.0209375 28.4640625 -17.0625 28.9375 C-20.37789384 30.136685 -23.5089308 30.5556821 -27 31 C-28.33917261 31.30903983 -29.67653254 31.62942911 -31 32 C-33.68757855 40.90126017 -32.87736012 52.71701444 -29 61.18359375 C-25.38919106 67.46687641 -20.12981199 72.98902739 -13 75 C-11.0075675 75.37593066 -9.0081326 75.71979545 -7 76 C-9.97 76.495 -9.97 76.495 -13 77 C-13.28999491 81.92991345 -13.19703098 85.09251769 -10 89 C-9.01 89 -8.02 89 -7 89 C-7.495 88.01 -7.495 88.01 -8 87 C-7.34 87 -6.68 87 -6 87 C-5.505 87.99 -5.505 87.99 -5 89 C-4.505 87.515 -4.505 87.515 -4 86 C-3.01 86.99 -2.02 87.98 -1 89 C-1.33 86.03 -1.66 83.06 -2 80 C0.72286806 84.08430208 0.38524534 86.14590877 0 91 C-3 93 -3 93 -5.875 93 C-11.57489553 91.17603343 -14.19421903 86.02087122 -17 81 C-20.48331435 84.01887244 -21.79157144 86.56909529 -23 91 C-21.68 92.32 -20.36 93.64 -19 95 C-21.31 94.01 -23.62 93.02 -26 92 C-28.74084921 94.36709704 -29.7367158 96.64405806 -31 100 C-23.74704654 110.62127423 -11.31676709 116.2143897 1 119 C3.94398253 119.28353575 6.85622011 119.33380201 9.8125 119.3125 C10.60567627 119.30831055 11.39885254 119.30412109 12.21606445 119.29980469 C21.3142564 119.12474992 28.32389979 116.83928056 36 112 C35.67 110.02 35.34 108.04 35 106 C33.54119891 106.14107747 32.08296449 106.28802415 30.625 106.4375 C29.81289062 106.51871094 29.00078125 106.59992188 28.1640625 106.68359375 C25.95727195 106.89090114 25.95727195 106.89090114 24 108 C24.33 107.34 24.66 106.68 25 106 C26.890625 105.578125 26.890625 105.578125 29.25 105.25 C32.69391743 104.55464624 34.64059999 103.88446068 36.9375 101.1875 C40.40534596 95.82810171 41.25211482 92.42892784 41 86 C40.29423828 86.52400391 40.29423828 86.52400391 39.57421875 87.05859375 C38.95160156 87.51363281 38.32898438 87.96867187 37.6875 88.4375 C37.07261719 88.88996094 36.45773438 89.34242188 35.82421875 89.80859375 C32.92661125 91.70103548 30.38176955 92.15547567 27 92.1875 C26.319375 92.20167969 25.63875 92.21585937 24.9375 92.23046875 C23 92 23 92 20 90 C20.90270193 86.30712847 21.40491051 84.44631711 24.5 82.125 C27 81 27 81 29 81 C27.02 81.99 27.02 81.99 25 83 C25.49831724 86.68754757 26.10067643 88.60490662 29 91 C34.6466306 89.68683009 36.92604931 87.75065107 40 83 C39.9593157 80.19514873 39.9593157 80.19514873 39 78 C37.68 78.33 36.36 78.66 35 79 C36 78 36 78 37.85546875 76.65234375 C48.31670123 68.95974566 54.88803042 59.03817954 57 46 C57.5983318 39.05935116 56.27587141 33.1909222 53 27 C51.29106764 25.18830333 49.55243024 23.75569808 47.55078125 22.28125 C45.42269051 20.52302894 44.6961926 18.63006091 44 16 C43.01 16 42.02 16 41 16 C40.73832031 15.3915625 40.47664063 14.783125 40.20703125 14.15625 C36.62240684 7.75264912 27.96849574 5.66637726 21.375 3.7890625 C5.45703063 0.06750022 -7.528121 3.6114597 -20 14 Z M46 16 C47.98 16 49.96 16 52 16 C52 18.64 52 21.28 52 24 C54.29575603 21.70424397 54.32339599 20.99157475 54.625 17.875 C54.74875 16.59625 54.8725 15.3175 55 14 C51.37471432 13.79859524 49.13498292 14.14223235 46 16 Z M-34 19 C-33.34 20.98 -32.68 22.96 -32 25 C-31.67 24.34 -31.34 23.68 -31 23 C-31.33 22.01 -31.66 21.02 -32 20 C-31.34 19.67 -30.68 19.34 -30 19 C-31.32 19 -32.64 19 -34 19 Z M-31 25 C-30 27 -30 27 -30 27 Z M-21 26 C-21.33 26.66 -21.66 27.32 -22 28 C-20.02 27.67 -18.04 27.34 -16 27 C-16 26.67 -16 26.34 -16 26 C-17.65 26 -19.3 26 -21 26 Z M-87 88 C-88.79575476 90.34228882 -89 91.55643348 -89 94.5 C-87.50754688 98.23113281 -85.53968958 99.16694647 -82 101 C-75.83870144 102.82290562 -69.56512322 103.42355461 -63.1875 103.9375 C-55.55225844 104.62063088 -48.36879256 105.82172517 -41 108 C-39.66826971 108.33968121 -38.33548693 108.67540248 -37 109 C-37.495 107.515 -37.495 107.515 -38 106 C-38.66 106 -39.32 106 -40 106 C-40 105.34 -40 104.68 -40 104 C-40.66 104 -41.32 104 -42 104 C-42 103.34 -42 102.68 -42 102 C-43.52978422 100.7560522 -43.52978422 100.7560522 -45.55078125 99.57421875 C-46.30681641 99.10935059 -47.06285156 98.64448242 -47.84179688 98.16552734 C-48.65712891 97.67777832 -49.47246094 97.1900293 -50.3125 96.6875 C-51.5490332 95.9442749 -51.5490332 95.9442749 -52.81054688 95.18603516 C-69.30580505 84.71503526 -69.30580505 84.71503526 -87 88 Z M24 88 C23.67 88.66 23.34 89.32 23 90 C23.99 89.67 24.98 89.34 26 89 C25.34 88.67 24.68 88.34 24 88 Z M-30 91 C-29.34 91.66 -28.68 92.32 -28 93 C-28 92.34 -28 91.68 -28 91 C-28.66 91 -29.32 91 -30 91 Z M-36 108 C-35 110 -35 110 -35 110 Z M-26 112 C-26 112.66 -26 113.32 -26 114 C-23.525 114.495 -23.525 114.495 -21 115 C-21 114.34 -21 113.68 -21 113 C-22.65 112.67 -24.3 112.34 -26 112 Z M-20 114 C-20 114.66 -20 115.32 -20 116 C-18.02 116 -16.04 116 -14 116 C-16.81509993 113.7226499 -16.81509993 113.7226499 -20 114 Z " fill="#ECFAFE" transform="translate(184,65)"/>
<path d="M0 0 C2.5 0.25 2.5 0.25 4.5 2.25 C6.63252093 2.52714896 6.63252093 2.52714896 9.0703125 2.4453125 C9.96621094 2.43886719 10.86210937 2.43242187 11.78515625 2.42578125 C12.72230469 2.40902344 13.65945312 2.39226562 14.625 2.375 C16.04232422 2.36146484 16.04232422 2.36146484 17.48828125 2.34765625 C19.82577292 2.32404522 22.16276123 2.29111516 24.5 2.25 C24.867749 7.78921926 24.867749 7.78921926 23.1875 9.89453125 C22.630625 10.27996094 22.07375 10.66539062 21.5 11.0625 C20.51 11.784375 19.52 12.50625 18.5 13.25 C18.5 13.58 18.5 13.91 18.5 14.25 C20.48 14.58 22.46 14.91 24.5 15.25 C25.16 12.94 25.82 10.63 26.5 8.25 C34.53501094 5.97428884 34.53501094 5.97428884 38.5625 7.125 C39.201875 7.49625 39.84125 7.8675 40.5 8.25 C40.83 7.92 41.16 7.59 41.5 7.25 C43.59383114 6.90832881 45.70176105 6.65115656 47.8125 6.4375 C48.96363281 6.30730469 50.11476563 6.17710937 51.30078125 6.04296875 C54.5 6.25 54.5 6.25 56.90234375 7.91015625 C58.81572325 10.71239175 58.92652258 12.14607101 58.75 15.5 C58.71390625 16.39203125 58.6778125 17.2840625 58.640625 18.203125 C58.59421875 18.87859375 58.5478125 19.5540625 58.5 20.25 C56.19 20.25 53.88 20.25 51.5 20.25 C51.5 18.6 51.5 16.95 51.5 15.25 C50.84 16.9 50.18 18.55 49.5 20.25 C48.943125 20.23839844 48.38625 20.22679687 47.8125 20.21484375 C43.92014929 20.16881933 40.27176916 20.23620226 36.4375 20.9375 C31.51986576 21.32778843 28.95866821 20.24047688 24.5 18.25 C24.5 18.91 24.5 19.57 24.5 20.25 C18.20007602 21.39544072 11.8949465 21.59294666 5.5 21.25 C4.5 20.25 4.5 20.25 4 17.5 C4.5 14.25 4.5 14.25 6.0625 12.7421875 C7.83559603 11.49101086 9.62039127 10.33365197 11.5 9.25 C9.19 9.25 6.88 9.25 4.5 9.25 C4.17 12.88 3.84 16.51 3.5 20.25 C0.86 20.25 -1.78 20.25 -4.5 20.25 C-4.5 17.61 -4.5 14.97 -4.5 12.25 C-6.15 12.58 -7.8 12.91 -9.5 13.25 C-9.83 15.56 -10.16 17.87 -10.5 20.25 C-24.04769475 22.15143084 -24.04769475 22.15143084 -27.3125 20.125 C-30.06264462 15.78266639 -31.07960094 11.35048827 -30.5 6.25 C-26.8558226 3.8205484 -24.78758728 4.08820425 -20.5 4.25 C-20.5 4.91 -20.5 5.57 -20.5 6.25 C-15.47560615 7.92479795 -10.59914442 7.48615622 -5.5 6.25 C-5.17 7.24 -4.84 8.23 -4.5 9.25 C-4.17 8.59 -3.84 7.93 -3.5 7.25 C-1.19 7.25 1.12 7.25 3.5 7.25 C3.5 6.59 3.5 5.93 3.5 5.25 C1.52 5.58 -0.46 5.91 -2.5 6.25 C-3.16 4.93 -3.82 3.61 -4.5 2.25 C-2.5 0.25 -2.5 0.25 0 0 Z M41.5 10.25 C42.5 13.25 42.5 13.25 42.5 13.25 Z M-22.5 11.25 C-22.17 12.9 -21.84 14.55 -21.5 16.25 C-20.18 15.92 -18.86 15.59 -17.5 15.25 C-17.83 14.26 -18.16 13.27 -18.5 12.25 C-20.51508358 11.51676204 -20.51508358 11.51676204 -22.5 11.25 Z M31.5 14.25 C31.5 14.58 31.5 14.91 31.5 15.25 C33.15 15.25 34.8 15.25 36.5 15.25 C36.5 14.92 36.5 14.59 36.5 14.25 C34.85 14.25 33.2 14.25 31.5 14.25 Z M38.5 14.25 C39.985 15.24 39.985 15.24 41.5 16.25 C41.5 15.59 41.5 14.93 41.5 14.25 C40.51 14.25 39.52 14.25 38.5 14.25 Z " fill="#F7FCFD" transform="translate(193.5,193.75)"/>
<path d="M0 0 C1.04111729 2.94519277 1.43536684 5.91623428 2 9 C-6.91 9.99 -6.91 9.99 -16 11 C-16.88065029 16.14865521 -16.88065029 16.14865521 -16.875 21.0625 C-17.01336455 25.42098338 -17.91313613 27.91313613 -21 31 C-23.3125 31.375 -23.3125 31.375 -26 31 C-28.75269725 28.32826444 -29.99118151 26.02284792 -31.375 22.4375 C-33.37724156 18.20198901 -34.99474045 17.22514419 -39 15 C-38.67 13.68 -38.34 12.36 -38 11 C-37.34 11.33 -36.68 11.66 -36 12 C-36 12.99 -36 13.98 -36 15 C-33.69 15.33 -31.38 15.66 -29 16 C-29 14.68 -29 13.36 -29 12 C-29.99 11.67 -30.98 11.34 -32 11 C-31.3125 9.0625 -31.3125 9.0625 -30 7 C-27.375 6.25 -27.375 6.25 -25 6 C-24.34 7.32 -23.68 8.64 -23 10 C-23.66 10.66 -24.32 11.32 -25 12 C-24.67 12.66 -24.34 13.32 -24 14 C-22.68 13.67 -21.36 13.34 -20 13 C-20 11.68 -20 10.36 -20 9 C-19.71826172 6.85864258 -19.71826172 6.85864258 -19 5 C-16.34443043 3.67815609 -13.9054937 2.65221042 -11.125 1.6875 C-10.39152344 1.41099609 -9.65804687 1.13449219 -8.90234375 0.84960938 C-3.40938319 -1.13646106 -3.40938319 -1.13646106 0 0 Z M-11 4 C-11 4.33 -11 4.66 -11 5 C-6.74268432 5.40749675 -6.74268432 5.40749675 -3.125 3.5 C-2.75375 3.005 -2.3825 2.51 -2 2 C-5.38023517 2 -7.83468937 2.87455622 -11 4 Z M-14 7 C-14 7.33 -14 7.66 -14 8 C-12.5629191 8.05422947 -11.12524538 8.09289723 -9.6875 8.125 C-8.48673828 8.15980469 -8.48673828 8.15980469 -7.26171875 8.1953125 C-4.71611424 8.15817322 -4.71611424 8.15817322 -2 6 C-6.13574827 5.9015298 -9.93631321 6.22596442 -14 7 Z M-18 8 C-17.34 8.66 -16.68 9.32 -16 10 C-16 9.34 -16 8.68 -16 8 C-16.66 8 -17.32 8 -18 8 Z " fill="#F7FCFD" transform="translate(212,80)"/>
<path d="M0 0 C1.49226558 3.68151748 0.88578517 7.370578 0.5625 11.25 C0.46066406 12.51328125 0.35882813 13.7765625 0.25390625 15.078125 C0.17011719 16.04234375 0.08632812 17.0065625 0 18 C-3.3 18 -6.6 18 -10 18 C-10.33 16.68 -10.66 15.36 -11 14 C-11.66 14 -12.32 14 -13 14 C-13.33 15.32 -13.66 16.64 -14 18 C-16.31 18.33 -18.62 18.66 -21 19 C-21 12.73 -21 6.46 -21 0 C-17.7 0 -14.4 0 -11 0 C-10.01 2.31 -9.02 4.62 -8 7 C-7.67 4.69 -7.34 2.38 -7 0 C-2.25 -1.125 -2.25 -1.125 0 0 Z " fill="#F7FCFD" transform="translate(146,196)"/>
<path d="M0 0 C1.98 0 3.96 0 6 0 C6.33 1.98 6.66 3.96 7 6 C7.33 4.02 7.66 2.04 8 0 C10.31 0 12.62 0 15 0 C15 4.29 15 8.58 15 13 C10 14 10 14 8 13 C7.38125 13.185625 6.7625 13.37125 6.125 13.5625 C4 14 4 14 0 12 C0 8.04 0 4.08 0 0 Z " fill="#F6FCFD" transform="translate(147,201)"/>
<path d="M0 0 C0.73046875 2.06640625 0.73046875 2.06640625 1.1875 4.5625 C1.34605469 5.38878906 1.50460938 6.21507813 1.66796875 7.06640625 C1.77753906 7.70449219 1.88710937 8.34257813 2 9 C0.90300781 9.13277344 -0.19398438 9.26554687 -1.32421875 9.40234375 C-2.77865801 9.58062985 -4.23308442 9.7590208 -5.6875 9.9375 C-6.40873047 10.02451172 -7.12996094 10.11152344 -7.87304688 10.20117188 C-11.62010584 10.66313805 -15.30792911 11.19167679 -19 12 C-19.33 10.02 -19.66 8.04 -20 6 C-3.95307918 -1.31769306 -3.95307918 -1.31769306 0 0 Z M-11 4 C-11 4.33 -11 4.66 -11 5 C-6.74268432 5.40749675 -6.74268432 5.40749675 -3.125 3.5 C-2.75375 3.005 -2.3825 2.51 -2 2 C-5.38023517 2 -7.83468937 2.87455622 -11 4 Z M-14 7 C-14 7.33 -14 7.66 -14 8 C-12.5629191 8.05422947 -11.12524538 8.09289723 -9.6875 8.125 C-8.48673828 8.15980469 -8.48673828 8.15980469 -7.26171875 8.1953125 C-4.71611424 8.15817322 -4.71611424 8.15817322 -2 6 C-6.13574827 5.9015298 -9.93631321 6.22596442 -14 7 Z M-18 8 C-17.34 8.66 -16.68 9.32 -16 10 C-16 9.34 -16 8.68 -16 8 C-16.66 8 -17.32 8 -18 8 Z " fill="#E4F8FE" transform="translate(212,80)"/>
<path d="M0 0 C-0.33 3.3 -0.66 6.6 -1 10 C-5.03328547 7.98335727 -6.51446675 6.63953082 -9 3 C-9 2.01 -9 1.02 -9 0 C-2.25 -1.125 -2.25 -1.125 0 0 Z " fill="#F7FCFE" transform="translate(237,81)"/>
<path d="M0 0 C2.5 1.3125 2.5 1.3125 5 3 C5 3.99 5 4.98 5 6 C3.35 6.66 1.7 7.32 0 8 C0.33 6.68 0.66 5.36 1 4 C0.34 4 -0.32 4 -1 4 C-1.33 5.65 -1.66 7.3 -2 9 C-2.99 8.67 -3.98 8.34 -5 8 C-5 7.34 -5 6.68 -5 6 C-5.66 5.67 -6.32 5.34 -7 5 C-4.69 3.35 -2.38 1.7 0 0 Z " fill="#F0FDFF" transform="translate(174,73)"/>
<path d="M0 0 C0.763125 0.20625 1.52625 0.4125 2.3125 0.625 C2.6425 1.945 2.9725 3.265 3.3125 4.625 C2.3225 4.625 1.3325 4.625 0.3125 4.625 C0.3125 3.635 0.3125 2.645 0.3125 1.625 C-1.6675 2.615 -3.6475 3.605 -5.6875 4.625 C-5.6875 3.635 -5.6875 2.645 -5.6875 1.625 C-2.6875 -0.375 -2.6875 -0.375 0 0 Z " fill="#E9F8FE" transform="translate(195.6875,74.375)"/>
<path d="M0 0 C0.99 0 1.98 0 3 0 C1.375 5.75 1.375 5.75 -2 8 C-1.125 1.125 -1.125 1.125 0 0 Z " fill="#E6F5FC" transform="translate(151,155)"/>
<path d="M0 0 C0.66 0.33 1.32 0.66 2 1 C2 1.99 2 2.98 2 4 C3.32 4.66 4.64 5.32 6 6 C5.01 6.33 4.02 6.66 3 7 C0.8125 5.5625 0.8125 5.5625 -1 4 C-0.67 2.68 -0.34 1.36 0 0 Z " fill="#E9F7FE" transform="translate(174,91)"/>
<path d="M0 0 C2.32472205 2.85306797 3.7508258 5.54074837 5 9 C3.68 8.67 2.36 8.34 1 8 C0.34 5.69 -0.32 3.38 -1 1 C-0.67 0.67 -0.34 0.34 0 0 Z " fill="#DAF4FE" transform="translate(150,86)"/>
<path d="M0 0 C1.67542976 0.28604898 3.34385343 0.61781233 5 1 C0.25 4.875 0.25 4.875 -2 6 C-1.125 1.125 -1.125 1.125 0 0 Z " fill="#F3FDFF" transform="translate(161,89)"/>
<path d="M0 0 C2.475 0.495 2.475 0.495 5 1 C5 2.65 5 4.3 5 6 C4.01 6.495 4.01 6.495 3 7 C2.814375 5.824375 2.814375 5.824375 2.625 4.625 C2.20882007 1.85942178 2.20882007 1.85942178 0 0 Z " fill="#F3FCFE" transform="translate(220,170)"/>
<path d="" fill="#FFFFFF" transform="translate(0,0)"/>
<path d="" fill="#FFFFFF" transform="translate(0,0)"/>
</svg>
